<?xml version="1.0" encoding="UTF-8"?>
<svg width="64" height="64" viewBox="0 0 24 24" fill="none" xmlns="http://www.w3.org/2000/svg">
    <path d="M12 2C6.47715 2 2 6.47715 2 12C2 17.5228 6.47715 22 12 22C17.5228 22 22 17.5228 22 12C22 6.47715 17.5228 2 12 2Z" stroke="#0088cc" stroke-width="2"/>
    <path d="M12 6V8M12 16V18M6 12H8M16 12H18M7.75736 7.75736L9.17157 9.17157M14.8284 14.8284L16.2426 16.2426M7.75736 16.2426L9.17157 14.8284M14.8284 9.17157L16.2426 7.75736" stroke="#0088cc" stroke-width="2" stroke-linecap="round"/>
    <path d="M12 15C13.6569 15 15 13.6569 15 12C15 10.3431 13.6569 9 12 9C10.3431 9 9 10.3431 9 12C9 13.6569 10.3431 15 12 15Z" fill="#0088cc"/>
</svg> 